<?xml version="1.0" standalone="no"?>
<!DOCTYPE svg PUBLIC "-//W3C//DTD SVG 20010904//EN"
 "http://www.w3.org/TR/2001/REC-SVG-20010904/DTD/svg10.dtd">
<svg version="1.0" xmlns="http://www.w3.org/2000/svg"
 width="283.000000pt" height="283.000000pt" viewBox="0 0 283.000000 283.000000"
 preserveAspectRatio="xMidYMid meet">
<metadata>
Created by potrace 1.14, written by Peter Selinger 2001-2017
</metadata>
<g transform="translate(0.000000,283.000000) scale(0.100000,-0.100000)"
fill="#000000" stroke="none">
<path d="M1255 2734 c-27 -7 -65 -11 -83 -8 -22 4 -41 1 -60 -12 -15 -10 -40
-17 -57 -16 -22 2 -62 -18 -150 -72 -66 -41 -128 -80 -138 -88 -25 -19 -55
-147 -83 -353 -8 -66 -19 -125 -23 -132 -7 -12 -58 48 -104 121 -20 31 -42 56
-51 56 -3 0 -20 -28 -37 -62 -17 -35 -44 -81 -59 -103 -83 -122 -123 -258
-101 -340 6 -22 13 -62 16 -89 4 -29 26 -88 56 -148 107 -214 138 -337 148
-598 6 -161 7 -167 38 -226 51 -97 155 -186 321 -275 l137 -73 160 -13 c261
-19 261 -19 507 45 199 52 231 64 293 104 90 58 170 130 183 165 27 75 42 141
52 235 7 57 20 128 30 158 10 30 37 116 60 190 24 74 51 153 61 175 11 23 22
63 25 90 4 28 15 68 25 89 20 43 25 106 9 106 -18 0 -10 26 15 50 23 21 25 29
19 70 -3 25 -12 55 -19 66 -10 15 -10 25 -3 32 7 7 3 48 -12 132 -16 94 -19
125 -9 136 7 8 7 14 1 14 -5 0 -13 7 -16 16 -7 19 9 34 78 70 47 25 49 27 31
40 -10 8 -20 24 -22 36 -2 13 -11 30 -19 38 -14 13 -19 11 -50 -24 l-34 -40 6
31 c7 34 -3 41 -51 39 -28 -1 -30 -4 -35 -51 l-5 -50 -32 55 c-18 30 -33 58
-33 62 0 4 -12 11 -27 14 -27 7 -95 47 -120 70 -7 7 -33 22 -58 34 -30 15 -45
28 -45 41 0 15 -5 18 -22 14 -13 -2 -109 -22 -215 -44 -106 -22 -205 -48 -220
-58 -15 -10 -45 -35 -65 -57 -42 -45 -38 -50 -67 74 -11 47 -27 119 -37 160
-18 73 -19 82 -22 108 -2 15 -23 14 -87 -4z m50 -111 c10 -36 24 -78 30 -92 7
-14 18 -66 25 -116 7 -49 18 -97 25 -105 26 -30 85 -116 107 -155 14 -26 23
-35 25 -24 2 9 -12 40 -32 70 -19 29 -35 61 -35 70 0 26 110 140 154 158 23
10 77 25 121 35 44 10 113 31 152 47 83 33 111 37 68 10 -16 -10 -57 -46 -90
-80 -46 -48 -60 -69 -61 -94 -1 -17 -11 -99 -23 -182 -25 -173 -30 -235 -19
-241 7 -5 9 1 28 91 6 28 33 115 61 195 43 125 55 150 92 188 23 23 52 45 64
48 31 8 116 -22 143 -51 13 -14 26 -21 30 -16 3 6 11 6 19 2 9 -6 -7 -19 -56
-45 -78 -41 -142 -90 -131 -101 4 -4 15 -4 25 0 10 5 22 7 26 6 5 -1 32 13 60
30 45 27 107 42 121 28 6 -5 25 -104 33 -166 4 -33 0 -52 -16 -79 -27 -45 -19
-55 17 -22 15 13 41 35 59 47 l32 22 5 -23 c3 -13 7 -57 10 -98 7 -85 1 -101
-62 -178 -47 -57 -74 -109 -61 -118 11 -6 37 19 105 101 l42 49 6 -41 c7 -37
2 -50 -49 -142 -31 -57 -54 -105 -51 -108 3 -4 7 -4 9 -2 2 2 20 28 41 57 48
66 62 57 41 -23 -8 -33 -15 -66 -15 -75 -1 -8 -9 -33 -20 -55 -11 -22 -19 -43
-20 -48 0 -4 -20 -49 -43 -100 -24 -50 -59 -137 -77 -192 -18 -55 -38 -111
-45 -125 -7 -14 -16 -47 -19 -75 -7 -53 -12 -86 -21 -150 -7 -48 -60 -165 -75
-165 -6 0 -38 -20 -71 -44 -107 -78 -331 -165 -464 -180 -192 -23 -250 -24
-348 -10 -55 9 -121 24 -149 35 -27 10 -62 19 -79 19 -40 0 -199 99 -284 178
-96 89 -108 120 -106 300 1 127 -16 322 -36 401 -8 35 -91 208 -116 245 -12
16 -15 26 -8 22 15 -9 9 19 -14 64 -7 14 -18 48 -25 76 -11 45 -11 58 4 104
21 64 102 237 115 245 5 3 12 -16 15 -42 15 -121 39 -213 56 -213 3 0 4 42 2
93 -1 50 0 112 3 137 l7 44 23 -39 c13 -21 31 -42 39 -47 20 -11 76 -95 76
-114 0 -7 4 -14 9 -14 5 0 12 28 16 63 4 34 15 107 25 162 18 98 43 254 55
347 5 39 13 52 43 76 20 16 51 36 67 45 17 9 40 21 52 28 26 14 72 4 80 -17 3
-8 -6 -67 -21 -131 -14 -64 -24 -118 -22 -120 5 -5 66 243 66 269 0 22 55 88
73 88 16 0 1 -237 -21 -333 -11 -48 -17 -89 -13 -91 4 -3 8 7 9 22 1 15 15 74
32 132 16 58 32 142 36 187 7 84 13 97 49 106 48 12 52 9 70 -60z m1055 -333
c0 -23 5 -40 11 -40 6 0 29 19 50 43 37 41 39 41 54 23 8 -11 15 -22 15 -25
-1 -3 -26 -22 -57 -41 -30 -19 -70 -54 -87 -76 l-32 -42 4 62 c5 74 19 136 32
136 6 0 10 -18 10 -40z"/>
<path d="M1151 2223 c4 -38 12 -117 18 -176 12 -113 38 -187 66 -187 19 0 19
14 0 30 -24 20 -34 74 -64 339 -3 30 -11 56 -16 58 -7 2 -8 -19 -4 -64z"/>
<path d="M1752 1498 c-71 -21 -118 -63 -154 -136 -30 -63 -37 -195 -14 -256
41 -107 219 -183 344 -147 99 29 166 112 192 238 21 103 0 186 -59 236 -84 70
-204 95 -309 65z m87 -134 c34 -44 26 -86 -21 -110 -37 -19 -80 -5 -97 32 -16
37 -14 52 14 79 33 34 77 33 104 -1z m95 -250 c19 -7 21 -40 4 -47 -29 -10
-53 25 -31 46 8 8 8 8 27 1z"/>
<path d="M753 1480 c-125 -63 -165 -163 -134 -339 12 -64 19 -80 54 -118 87
-94 219 -128 315 -81 60 31 132 95 148 133 25 60 29 177 8 250 -17 59 -25 71
-71 106 -109 85 -216 101 -320 49z m98 -111 c49 -26 43 -107 -10 -129 -73 -30
-134 59 -79 117 23 25 57 29 89 12z m134 -294 c0 -30 -39 -27 -43 3 -3 20 0
23 20 20 15 -2 23 -10 23 -23z"/>
<path d="M1515 661 c-17 -16 -117 -41 -164 -41 -40 0 -67 6 -176 37 -15 4 -12
-3 15 -31 49 -53 83 -67 159 -69 74 -2 131 20 164 65 20 26 21 58 2 39z"/>
</g>
</svg>
